# xmcd CD database file
#
# Track frame offsets:
#	150
#	4796
#	24104
#	31626
#	47890
#	77838
#	88347
#	108447
#	128940
#	152491
#	168532
#	191623
#	211299
#	247455
#
# Disc length: 3748 seconds
#
# Revision: 0
# Processed by: cddbd v1.4PL0 Copyright (c) Steve Scherf et al.
# Submitted via: CDex 1.50Beta7
#
DISCID=b40ea20e
DTITLE=Mystery - A Nap gyermekei
DYEAR=2003
DGENRE=New Age
TTITLE0=Prológ
TTITLE1=A néma csillag
TTITLE2=Egy rövid dal
TTITLE3=Keringõ
TTITLE4=A Nap gyermeke
TTITLE5=Napraforgó
TTITLE6=Új nap,új kép
TTITLE7=Mese a XVIII.századból
TTITLE8=A csillagász álma
TTITLE9=Elköltözött
TTITLE10=Hallom a hangodat
TTITLE11=Éjfél bál
TTITLE12=A Nap
TTITLE13=Adatsáv
EXTD=YEAR: 2003
EXTT0=
EXTT1=
EXTT2=
EXTT3=
EXTT4=
EXTT5=
EXTT6=
EXTT7=
EXTT8=
EXTT9=
EXTT10=
EXTT11=
EXTT12=
EXTT13=
PLAYORDER=
